<svg xmlns="http://www.w3.org/2000/svg" width="19" height="20" fill="none" viewBox="0 0 19 20"><path fill="#9AFF8A" fill-opacity=".85" d="M16.8313 17.3877C19.263 14.956 19.6536 11.9384 17.9837 8.42285L15.7864 3.79395C15.6301 3.47168 15.4446 3.20801 15.2395 3.00293C14.5071 2.27051 13.4426 2.30957 12.7395 3.0127C12.261 3.49121 12.1145 4.2041 12.427 4.97559L13.0813 6.53809C13.1008 6.57715 13.1008 6.61621 13.0716 6.64551C13.0325 6.67481 12.9934 6.66504 12.9544 6.63575L7.41727 1.09863C6.61649 0.288085 5.60086 0.288085 4.82938 1.05957C4.54618 1.33301 4.38992 1.69434 4.38016 2.06543C3.57938 1.45019 2.6907 1.46973 2.00711 2.15332C1.33328 2.82715 1.31375 3.74512 1.88992 4.52637C1.53836 4.52637 1.20633 4.68262 0.952427 4.93653C0.239536 5.64942 0.259068 6.62598 1.02079 7.3877L1.79227 8.15918C1.41141 8.14942 1.03055 8.3252 0.737583 8.61817C0.0149269 9.34082 0.0539898 10.3662 0.825474 11.1377L6.76297 17.0752C9.99539 20.3076 13.9114 20.3076 16.8313 17.3877ZM15.845 16.4697C13.4036 18.9111 10.3372 18.833 7.56376 16.0498L1.84109 10.3271C1.53836 10.0342 1.52859 9.63379 1.8118 9.35059C2.095 9.06739 2.50516 9.06739 2.79813 9.36035L6.33328 12.8857C6.58719 13.1396 6.95828 13.1103 7.18289 12.8857C7.42703 12.6513 7.45634 12.2705 7.20243 12.0166L1.92898 6.7334C1.63602 6.44043 1.61648 6.04981 1.89969 5.7666C2.18289 5.47364 2.60281 5.47364 2.89578 5.7666L7.81766 10.6982C8.07156 10.9521 8.45242 10.913 8.67703 10.6884C8.91141 10.4541 8.95047 10.0732 8.69656 9.81934L2.91531 4.03809C2.62234 3.74512 2.60281 3.33496 2.89578 3.05176C3.16922 2.76856 3.58914 2.77832 3.88211 3.07129L9.66336 8.85254C9.89773 9.09668 10.2786 9.08692 10.513 8.85254C10.7571 8.6084 10.7766 8.21778 10.5423 7.9834L5.61063 3.05176C5.31766 2.75879 5.3079 2.3584 5.59109 2.06543C5.88407 1.78223 6.28445 1.792 6.57743 2.08496L13.3743 8.88184C13.7161 9.2334 14.1262 9.22364 14.4094 8.94043C14.6536 8.69629 14.761 8.37403 14.5657 7.86621L13.345 4.66309C13.179 4.22364 13.3352 3.87207 13.6673 3.71582C14.0383 3.54981 14.3704 3.72559 14.5852 4.18457L16.8508 8.96973C18.3645 12.1728 17.7688 14.5361 15.845 16.4697Z"/></svg>