<?xml version="1.0" encoding="UTF-8"?>
<!--Generator: Apple Native CoreSVG 232.5-->
<!DOCTYPE svg
PUBLIC "-//W3C//DTD SVG 1.1//EN"
       "http://www.w3.org/Graphics/SVG/1.1/DTD/svg11.dtd">
<svg version="1.1" xmlns="http://www.w3.org/2000/svg" xmlns:xlink="http://www.w3.org/1999/xlink" width="154.175" height="154.321">
 <g>
  <rect height="154.321" opacity="0" width="154.175" x="0" y="0"/>
  <path d="M0 77.124C0 81.0059 3.2959 84.2285 7.17773 84.2285L69.9463 84.2285L69.9463 146.997C69.9463 150.879 73.1689 154.175 77.0508 154.175C81.0059 154.175 84.2285 150.879 84.2285 146.997L84.2285 84.2285L146.997 84.2285C150.879 84.2285 154.175 81.0059 154.175 77.124C154.175 73.1689 150.879 69.9463 146.997 69.9463L84.2285 69.9463L84.2285 7.17773C84.2285 3.2959 81.0059 0 77.0508 0C73.1689 0 69.9463 3.2959 69.9463 7.17773L69.9463 69.9463L7.17773 69.9463C3.2959 69.9463 0 73.1689 0 77.124Z" fill="#ffffff" fill-opacity="0.85"/>
 </g>
</svg>
